inDegrees=no
num_controls=7
num_derivatives=13
num_iterations=139
num_multipliers=7
num_parameters=0
num_slacks=7
num_states=26
objective=5.515118
objective_accelerations=0.650802
objective_balance=0.034186
objective_effort=0.346836
objective_height=4.375076
objective_ligament=0.108219
solver_duration=1548.920698
status=Solve_Succeeded
success=true
DataType=double
version=3
OpenSimVersion=4.4-2022-07-23-0e9fedc
endheader
time	/jointset/ground_pelvis/pelvis_tilt/value	/jointset/ground_pelvis/pelvis_tx/value	/jointset/ground_pelvis/pelvis_ty/value	/jointset/hip_l/hip_flexion_l/value	/jointset/hip_l/hip_adduction_l/value	/jointset/hip_l/hip_rotation_l/value	/jointset/back/lumbar_extension/value	/jointset/patellofemoral_l/patellar_flexion_l/value	/jointset/knee_l/knee_flexion_l/value	/jointset/knee_l/knee_adduction_l/value	/jointset/knee_l/knee_rotation_l/value	/jointset/ankle_l/ankle_angle_l/value	/jointset/subtalar_l/subtalar_angle_l/value	/jointset/ground_pelvis/pelvis_tilt/speed	/jointset/ground_pelvis/pelvis_tx/speed	/jointset/ground_pelvis/pelvis_ty/speed	/jointset/hip_l/hip_flexion_l/speed	/jointset/hip_l/hip_adduction_l/speed	/jointset/hip_l/hip_rotation_l/speed	/jointset/back/lumbar_extension/speed	/jointset/patellofemoral_l/patellar_flexion_l/speed	/jointset/knee_l/knee_flexion_l/speed	/jointset/knee_l/knee_adduction_l/speed	/jointset/knee_l/knee_rotation_l/speed	/jointset/ankle_l/ankle_angle_l/speed	/jointset/subtalar_l/subtalar_angle_l/speed	/forceset/tau_hip_flexion_l	/forceset/tau_hip_adduction_l	/forceset/tau_hip_rotation_l	/forceset/tau_knee_flexion_l	/forceset/tau_ankle_angle_l	/forceset/tau_subtalar_angle_l	/forceset/tau_lumbar_extension	lambda_cid13_p0	lambda_cid13_p1	lambda_cid13_p2	lambda_cid13_p3	lambda_cid13_p4	lambda_cid13_p5	lambda_cid14_p0	/jointset/ground_pelvis/pelvis_tilt/accel	/jointset/ground_pelvis/pelvis_tx/accel	/jointset/ground_pelvis/pelvis_ty/accel	/jointset/hip_l/hip_flexion_l/accel	/jointset/hip_l/hip_adduction_l/accel	/jointset/hip_l/hip_rotation_l/accel	/jointset/back/lumbar_extension/accel	/jointset/patellofemoral_l/patellar_flexion_l/accel	/jointset/knee_l/knee_flexion_l/accel	/jointset/knee_l/knee_adduction_l/accel	/jointset/knee_l/knee_rotation_l/accel	/jointset/ankle_l/ankle_angle_l/accel	/jointset/subtalar_l/subtalar_angle_l/accel	gamma_cid13_p0	gamma_cid13_p1	gamma_cid13_p2	gamma_cid13_p3	gamma_cid13_p4	gamma_cid13_p5	gamma_cid14_p0
0.5	-0.4623039583568073	-0.1062681916472665	0.7573233018945973	1.209401751170553	-0.4265860939371879	-0.2880098809440123	-0.2564820732547063	0.6343884504666637	0.6343884504668045	-0.1615568418427181	-0.1669594596835541	-0.07818830669363865	-0.1141816266978798	-1.10593020559756	-0.384930771860891	-0.5202446637543071	2.729800811487574	-0.2180368859984397	0.6088083730990381	-0.09738769498999517	1.518735060910252	1.518735060910534	0.03016026684614789	-0.05692607856975426	-0.01378169511518288	-0.2367144558024938	-0.2214954233004452	0.003493590643204809	-0.006461550678348786	-0.1735214207925544	0.1348122582434393	0.06387294715168501	0.200574049199459	9.269331282842639	-31.55686837628928	7.201020404205732	-11.08862660167542	-523.9392984937665	-68.07757107652634	-33.33733020206245	0.9607498641334058	0.7647703992025091	-0.3324588850142832	-1.739097589179704	0.5473589472303128	-0.0543456027581662	1.103119075007719	-0.9955478098851724	-0.995547809885176	-0.007233649667688153	0.2392431623746253	-0.01161225822015971	0.5814942104853499	1.735853325171455e-08	-7.09673781745424e-07	-7.802756429623426e-08	-2.64054164923252e-07	-1.789026132818641e-07	2.93970336703779e-07	-1.341837526471604e-07
0.51	-0.4733126804851114	-0.1100787887698675	0.7521053696339818	1.236607788583173	-0.4287396221284784	-0.2819265510935393	-0.2574023531699445	0.6495241851594259	0.6495241851594349	-0.161256571739618	-0.1675183296807227	-0.07832692660079703	-0.1165203468794178	-1.095657944990852	-0.3771511219361838	-0.5232310490405343	2.711037836905278	-0.2126459522097146	0.6077778234749057	-0.08672642923455759	1.508206550286695	1.508206550287041	0.02989448600796795	-0.05484473291899585	-0.01395483185529499	-0.2310140267340423	-0.2286369278699354	0.004143035422096093	-0.006392080215808462	-0.1750120760253745	0.1369966136798322	0.0652242954703387	0.2058085051331322	9.724623181612964	-32.15703460148578	7.220809827532861	-11.46165461983898	-527.7491111802893	-67.75975441874053	-32.69566712284903	1.083912250490316	0.790140568003768	-0.2651524039254956	-2.000217191862363	0.5385146746751448	-0.1394807182995305	1.038909149093312	-1.112274955207592	-1.112274955198217	-0.03628269726290317	0.1931034817751349	-0.02205249124170798	0.566765217827818	9.568257543156196e-09	-6.673694826473352e-07	-5.755918658982741e-08	-2.508540742768518e-07	-1.700411404812249e-07	2.989342957552615e-07	-1.331110227546791e-07
0.52	-0.4842139903890268	-0.1138104737374415	0.746860888709804	1.263615132290147	-0.4308385301658786	-0.2758559409545315	-0.2582177646629724	0.6645484802926492	0.6645484802925039	-0.1609589659242647	-0.1680562815782253	-0.07846765549722064	-0.1188015731777112	-1.084447760722148	-0.3691483408554804	-0.5255543964667377	2.690062070358654	-0.2071128552217298	0.6062644308084252	-0.07641401054787644	1.496447148998469	1.496447148998876	0.02962740931500151	-0.0527424586543006	-0.01420349296880435	-0.2252156791534818	-0.2357784324395091	0.004792480200969226	-0.00632260975379169	-0.1765027312581312	0.1391809691162343	0.06657564378898402	0.2110429610667259	10.17016297033965	-32.75634575408125	7.241436610391808	-11.80799570503945	-531.6955202206692	-67.46889307833645	-32.0446118524063	1.148334596532388	0.8093966304018615	-0.1998513130095466	-2.181655982045336	0.575791587082223	-0.1509142112278888	1.033349661256337	-1.241725942819268	-1.241725942819342	-0.007492820625022543	0.2434288851619138	-0.02671713289948852	0.6010779129071706	4.402885699435477e-09	-6.318911068714678e-07	-5.094345464766817e-08	-2.391456251463301e-07	-1.604990443498636e-07	3.035788057420162e-07	-1.309408948988747e-07
0.53	-0.4949986289289414	-0.1174611261215762	0.7415964969532013	1.290401910289342	-0.432881418763635	-0.2698028010725328	-0.2589319340004677	0.679449124559479	0.6794491245595098	-0.1606639663463654	-0.1685730382264215	-0.07861126955891541	-0.1210243571575488	-1.072322195503384	-0.3609543808076749	-0.5272114138147125	2.666932148980675	-0.2014464664833257	0.6042792659759911	-0.06650480518106766	1.483486836570778	1.483486836571186	0.0293770177553855	-0.0506100651853646	-0.01453236387806648	-0.2193301472421444	-0.2428256677911806	0.005369248956354968	-0.006259494895136751	-0.1777995673414298	0.141115669239407	0.06783783538756023	0.2161335684104622	10.54248623880007	-33.30433742887588	7.254134089966804	-12.04536320975043	-535.4928062432408	-67.1026865335409	-31.38673345656611	1.268334416348938	0.8285123676328783	-0.1317768871732919	-2.432864548688727	0.5649434672380156	-0.2350594361484729	0.9569637397684385	-1.352388102138764	-1.352388102138645	-0.03326507676294108	0.1980084204005482	-0.03793551698212426	0.5840385150762543	-8.309891110019949e-09	-5.80270759002893e-07	-1.589441299759419e-08	-2.134133955712058e-07	-1.571423883656058e-07	3.079938421577638e-07	-1.294153187746599e-07
0.54	-0.5056572784302984	-0.1210290155701001	0.7363189050348222	1.316946548208149	-0.4348670672839983	-0.2637720612022484	-0.2595495597312214	0.694214324860158	0.6942143248603677	-0.1603713612347354	-0.1690684981713545	-0.07875856501910868	-0.1231879362813077	-1.059249953012629	-0.3525957537333086	-0.5281944288220016	2.641634054282104	-0.195664839744182	0.601784428467664	-0.05710528919926421	1.469358355767294	1.469358355767703	0.02914851607045004	-0.04848311801079139	-0.0149397726690294	-0.2133747079376401	-0.2498729031429631	0.005946017711723239	-0.006196380036745646	-0.1790964034246932	0.1430503693625907	0.06910002698612669	0.2212241757540875	10.90602441138241	-33.8514730774235	7.267474279070308	-12.26305629561734	-539.4190093657319	-66.76244468702838	-30.72452695839705	1.337670050930401	0.8423300357141055	-0.06505084487243869	-2.615290646163657	0.5988391872301115	-0.2528487464065826	0.9314117842551786	-1.475359617977869	-1.475359617977904	-0.003114845688946022	0.2423396262892603	-0.04242470923953968	0.6150593915405363	-2.937298830709685e-08	-5.107912079679184e-07	5.061275854208793e-08	-1.721654940148187e-07	-1.606291980760158e-07	3.121549929204821e-07	-1.286028637151824e-07
